# xmcd
#
# Track frame offsets:
#	150
#	15108
#	31758
#	43465
#	59261
#	79203
#	101762
#	114137
#	122557
#	137625
#	152512
#	168033
#	185108
#	199911
#	215630
#	232212
#	251678
#	263708
#	278406
#	294886
#	307062
#	327734
#	348704
#
# Disc length: 4791 seconds
#
# Revision: 1
# Processed by: cddbd v1.5.2PL0 Copyright (c) Steve Scherf et al.
# Submitted via: audiograbber 1.83.01
#
DISCID=5012b517
DTITLE=Country Hotdisc  - Country Hotdisc 111
DYEAR=2008
DGENRE=Country
TTITLE0=Like A Radio  - Billy Yates
TTITLE1=65 Chevy  - D K Davis
TTITLE2=Little Things  - Kristy Lee Akers
TTITLE3=Sombody Stole The Sun  - Ronnie Baker
TTITLE4=Still Loving Me  - Richard Frankz 
TTITLE5=El Cinizo  - The Rescue
TTITLE6=Fraulin  - Narvel Felts
TTITLE7=Tumbling Tumbleweeds - Nicholas Mccarthy and The Yellowstone Picknick Ban
TTITLE7=d
TTITLE8=There´s A Song In There Somwhere - Victoria Shaw
TTITLE9=You Wouldn´t Know Love  - Hank Cochran
TTITLE10=Better Late Than Never  - Dave Sheriff
TTITLE11=I Hope She Falls  - Henry Smith
TTITLE12=Wildwood Flower  - Bryan Chalker With Ed Wooden
TTITLE13=Waterfalls  - Chilli Gold
TTITLE14=The Likes Of You  - Alan West
TTITLE15=Ol´ 97  - Randy Thompson
TTITLE16=You Just Mised The Train  - Susan Hickman
TTITLE17=Don´t Laugh At Me  - Bernadette
TTITLE18=Everything I´ve Never Seen  - Van Preston
TTITLE19=Come Over To Ireland  - Ivan D
TTITLE20=First Hero  - Dave Aspen
TTITLE21=Borderline  - The Cousticks
TTITLE22=Soundbite, Introduces Us To Lasest Australian Star Kristy Lee Akeres  
TTITLE22=Frank Ifield
EXTD=
EXTT0=
EXTT1=
EXTT2=
EXTT3=
EXTT4=
EXTT5=
EXTT6=
EXTT7=
EXTT8=
EXTT9=
EXTT10=
EXTT11=
EXTT12=
EXTT13=
EXTT14=
EXTT15=
EXTT16=
EXTT17=
EXTT18=
EXTT19=
EXTT20=
EXTT21=
EXTT22=
PLAYORDER=
